<svg width="376" height="376" viewBox="0 0 376 376" fill="none" xmlns="http://www.w3.org/2000/svg">
<path d="M255.829 85.2474C241.353 88.086 226.309 89.5052 210.697 89.5052C178.053 89.5052 147.397 83.9701 118.728 72.8998L132.779 30.3217C159.461 41.6758 188.272 47.3529 219.212 47.3529C274.28 47.3529 317.568 31.7409 349.075 0.516968L375.9 27.767C344.676 59.2748 329.064 102.563 329.064 157.63C329.064 189.138 334.883 217.949 346.521 244.064L303.517 257.689C292.73 230.155 287.337 199.925 287.337 166.997C287.337 150.818 288.756 135.206 291.595 120.161L36.6929 375.489L0.927246 339.724L255.829 85.2474Z" fill="black"/>
</svg>
