<svg width="58" height="59" viewBox="0 0 58 59" fill="none" xmlns="http://www.w3.org/2000/svg">
<path d="M28.3215 1.51581C28.4296 0.60606 29.7497 0.60606 29.8577 1.51581L30.7633 9.14775C31.9326 19.0026 39.7024 26.7725 49.5572 27.9418L57.1892 28.8474C58.099 28.9554 58.099 30.2755 57.1892 30.3835L49.5572 31.2891C39.7024 32.4584 31.9326 40.2283 30.7633 50.0831L29.8577 57.715C29.7497 58.6249 28.4296 58.6249 28.3215 57.715L27.416 50.0831C26.2467 40.2283 18.4768 32.4584 8.62193 31.2891L0.989988 30.3835C0.0802417 30.2755 0.0802417 28.9554 0.989988 28.8474L8.62193 27.9418C18.4768 26.7725 26.2467 19.0026 27.416 9.14775L28.3215 1.51581Z" fill="url(#paint0_linear_5_2)"/>
<defs>
<linearGradient id="paint0_linear_5_2" x1="0.307678" y1="29.5263" x2="57.8716" y2="29.5263" gradientUnits="userSpaceOnUse">
<stop offset="0.140625" stop-color="#B16CEA"/>
<stop offset="0.447917" stop-color="#FF5E69"/>
<stop offset="0.71875" stop-color="#FF8A56"/>
<stop offset="1" stop-color="#FFA84B"/>
</linearGradient>
</defs>
</svg>
