<?xml version="1.0" encoding="utf-8"?>
<!-- Generator: Adobe Illustrator 27.3.1, SVG Export Plug-In . SVG Version: 6.00 Build 0)  -->
<svg version="1.1" id="Layer_1" xmlns="http://www.w3.org/2000/svg" xmlns:xlink="http://www.w3.org/1999/xlink" x="0px" y="0px"
	 viewBox="0 0 870 283" style="enable-background:new 0 0 870 283;" xml:space="preserve">
<style type="text/css">
	.st0{fill:#1C1C22;}
</style>
<path class="st0" d="M50.6,138.4L3.1,4.3h45.5l29,88.6h0.8l29.8-88.6h40.8l-47.4,134.1l49.8,140.3h-45.5l-31.4-95.6h-0.8l-32.1,95.6
	H0.8L50.6,138.4z M171.8,4.3h114.1v39.2h-71V120h55.7v39.2h-55.7v119.6h-43.1V4.3z M368.9,282.7c-21.2,0-37.4-6-48.6-18
	c-11.2-12-16.9-29-16.9-51V69.4c0-22,5.6-38.9,16.9-51c11.2-12,27.4-18,48.6-18s37.4,6,48.6,18c11.2,12,16.9,29,16.9,51v144.3
	c0,22-5.6,38.9-16.9,51C406.2,276.7,390,282.7,368.9,282.7z M368.9,243.5c14.9,0,22.3-9,22.3-27V66.7c0-18-7.4-27-22.3-27
	s-22.3,9-22.3,27v149.7C346.5,234.4,354,243.5,368.9,243.5z M463.5,4.3h43.1v235.2h71v39.2H463.5V4.3z M598.2,4.3h43.1v274.4h-43.1
	V4.3z M736,282.7c-21.2,0-37.4-6-48.6-18c-11.2-12-16.9-29-16.9-51V69.4c0-22,5.6-38.9,16.9-51c11.2-12,27.4-18,48.6-18
	c21.2,0,37.4,6,48.6,18c11.2,12,16.9,29,16.9,51v144.3c0,22-5.6,38.9-16.9,51C773.3,276.7,757.1,282.7,736,282.7z M736,243.5
	c14.9,0,22.3-9,22.3-27V66.7c0-18-7.4-27-22.3-27s-22.3,9-22.3,27v149.7C713.6,234.4,721.1,243.5,736,243.5z M828.3,237.2h41.6v41.6
	h-41.6V237.2z"/>
</svg>
