<svg width="910" height="284" viewBox="0 0 910 284" fill="none" xmlns="http://www.w3.org/2000/svg">
<g clip-path="url(#clip0_41_21)">
<path d="M903.278 255.288C899.358 258.947 894.654 260.776 889.166 260.776C883.94 260.776 879.366 258.947 875.446 255.288C871.526 251.368 869.566 246.664 869.566 241.176C869.566 235.688 871.526 230.984 875.446 227.064C879.366 223.144 883.94 221.184 889.166 221.184C894.654 221.184 899.358 223.144 903.278 227.064C907.198 230.984 909.158 235.688 909.158 241.176C909.158 246.664 907.198 251.368 903.278 255.288Z" fill="#373843"/>
<path d="M845.593 256.072C845.593 260.253 847.423 264.435 851.081 268.616C854.74 272.536 860.097 274.496 867.153 274.496H771.897C778.953 274.496 784.311 272.536 787.969 268.616C791.889 264.435 793.849 260.253 793.849 256.072V109.464C793.849 105.021 791.889 100.84 787.969 96.92C784.311 92.7387 778.953 90.648 771.897 90.648C781.305 90.648 791.628 89.2107 802.865 86.336C814.103 83.2 824.033 78.7573 832.657 73.008C841.281 66.9973 845.593 60.5947 845.593 53.8V256.072ZM837.753 44.392C832.788 49.3573 826.647 51.84 819.329 51.84C812.273 51.84 806.263 49.3573 801.297 44.392C796.332 39.1653 793.849 33.024 793.849 25.968C793.849 18.912 796.332 12.9013 801.297 7.93601C806.263 2.70933 812.273 0.095993 819.329 0.095993C826.647 0.095993 832.788 2.70933 837.753 7.93601C842.98 12.9013 845.593 18.912 845.593 25.968C845.593 33.024 842.98 39.1653 837.753 44.392Z" fill="#373843"/>
<path d="M460.906 109.464C460.906 105.021 459.077 100.84 455.418 96.92C451.76 92.7387 446.402 90.648 439.346 90.648C448.755 90.648 459.077 89.2107 470.314 86.336C481.552 83.2 491.352 78.7573 499.714 73.008C508.338 66.9973 512.65 60.5947 512.65 53.8V120.832L510.298 124.36C496.709 142.915 480.245 162.645 460.906 183.552V109.464ZM512.65 256.072C512.65 260.253 514.48 264.435 518.139 268.616C522.059 272.536 527.547 274.496 534.603 274.496H439.346C446.402 274.496 451.76 272.536 455.418 268.616C459.077 264.435 460.906 260.253 460.906 256.072V210.6C467.44 202.237 477.109 189.171 489.914 171.4C499.584 158.072 507.162 147.749 512.65 140.432V256.072ZM758.827 256.072C758.827 260.253 760.656 264.435 764.314 268.616C767.973 272.536 773.461 274.496 780.779 274.496H685.13C692.448 274.496 697.936 272.536 701.595 268.616C705.253 264.435 707.083 260.253 707.083 256.072V154.544V100.056C707.083 61.3787 689.181 64.776 653.379 110.248L636.915 132.592V256.072C636.915 260.253 638.744 264.435 642.402 268.616C646.061 272.536 651.419 274.496 658.475 274.496H563.219C570.275 274.496 575.632 272.536 579.29 268.616C583.211 264.435 585.171 260.253 585.171 256.072V154.544V100.056C585.171 61.64 567.4 64.9067 531.858 109.856C525.848 117.435 519.445 126.059 512.65 135.728C507.162 142.784 500.368 151.931 492.266 163.168C484.426 174.144 477.893 183.16 472.666 190.216C467.701 197.272 461.429 205.504 453.85 214.912C446.272 224.059 439.477 231.637 433.466 237.648C427.717 243.659 420.792 249.931 412.69 256.464C404.85 262.736 397.011 267.701 389.171 271.36C381.592 274.757 372.968 277.632 363.298 279.984C353.89 282.597 343.96 283.904 333.506 283.904C317.565 283.904 302.8 278.939 289.21 269.008C275.882 258.816 265.298 245.096 257.458 227.848C249.618 210.339 245.698 191.392 245.698 171.008C245.698 139.909 254.192 113.384 271.178 91.432C288.426 69.2187 309.202 58.112 333.506 58.112C357.81 58.112 378.587 69.088 395.835 91.04C413.083 112.992 421.706 139.648 421.706 171.008H300.97C300.97 196.88 305.936 218.048 315.866 234.512C325.797 250.976 338.472 259.861 353.891 261.168C360.162 261.168 367.088 259.731 374.667 256.856C382.507 253.72 390.216 249.539 397.794 244.312C405.634 239.085 413.474 233.075 421.314 226.28C429.416 219.485 437.125 212.429 444.443 205.112C452.021 197.533 459.208 189.955 466.003 182.376C472.797 174.797 478.938 167.611 484.426 160.816C490.176 154.021 495.141 148.011 499.322 142.784C503.765 137.557 507.032 133.507 509.123 130.632L512.65 125.928C523.365 110.248 533.688 97.312 543.618 87.12C553.81 76.928 562.957 70.0027 571.059 66.344C579.16 62.424 586.738 60.464 593.794 60.464C601.112 60.2027 607.253 62.032 612.219 65.952C617.445 69.872 621.888 74.8373 625.546 80.848C629.466 86.5973 632.341 93.1307 634.171 100.448C636 107.504 636.915 114.821 636.915 122.4V122.792C647.368 107.635 657.56 95.2213 667.491 85.552C677.421 75.6213 686.306 68.9573 694.146 65.56C702.248 61.9013 709.696 60.2027 716.491 60.464C723.547 60.464 729.557 62.424 734.522 66.344C739.749 70.264 744.192 75.0987 747.85 80.848C751.509 86.5973 754.253 93.1307 756.083 100.448C757.912 107.765 758.827 115.083 758.827 122.4V256.072ZM355.458 94.568C349.448 76.2747 342.13 67.128 333.506 67.128C325.144 67.128 317.826 76.2747 311.554 94.568C305.282 112.861 301.885 135.205 301.362 161.6H366.042C365.258 135.205 361.731 112.861 355.458 94.568Z" fill="#373843"/>
<path d="M173.855 170.616C175.685 174.275 179.082 181.2 184.047 191.392C189.274 201.584 194.109 210.861 198.551 219.224C202.994 227.587 208.09 236.341 213.839 245.488C219.85 254.373 225.991 261.429 232.263 266.656C238.797 271.883 245.199 274.496 251.471 274.496C249.642 274.496 245.722 274.496 239.711 274.496C233.962 274.757 229.519 274.888 226.383 274.888C223.247 274.888 218.805 274.627 213.055 274.104C207.306 273.32 202.341 272.275 198.159 270.968C194.239 269.661 189.666 267.832 184.439 265.48C179.474 262.867 174.77 259.731 170.327 256.072C167.714 253.72 164.97 250.976 162.095 247.84C159.482 244.443 156.477 240.131 153.079 234.904C149.682 229.416 147.069 225.104 145.239 221.968C143.41 218.832 140.274 213.475 135.831 205.896C131.389 198.056 128.383 192.96 126.815 190.608C115.578 174.667 105.517 162.384 96.6313 153.76C92.7113 149.84 85.2633 147.357 74.2873 146.312V256.072C74.2873 260.253 76.1166 264.435 79.7753 268.616C83.434 272.536 88.7913 274.496 95.8473 274.496H0.591309C7.64731 274.496 13.0046 272.536 16.6633 268.616C20.5833 264.435 22.5433 260.253 22.5433 256.072V18.52C22.5433 14.3387 20.5833 10.288 16.6633 6.36801C13.0046 2.18666 7.64731 0.095993 0.591309 0.095993H182.871C201.687 0.095993 217.759 6.89067 231.087 20.48C244.677 33.808 251.471 50.0107 251.471 69.088C251.471 87.904 244.677 103.976 231.087 117.304C217.759 130.632 201.687 137.296 182.871 137.296H146.415C154.778 142 161.834 149.579 167.583 160.032L173.855 170.616ZM74.2873 128.28H140.927C151.903 126.973 161.573 123.445 169.935 117.696C178.298 111.685 184.701 104.499 189.143 96.136C193.847 87.512 196.199 78.3653 196.199 68.696C196.199 54.3227 191.103 41.5173 180.911 30.28C170.981 18.7813 158.306 11.856 142.887 9.50399H77.0313C75.202 12.3787 74.2873 15.384 74.2873 18.52V128.28Z" fill="#373843"/>
</g>
<defs>
<clipPath id="clip0_41_21">
<rect width="908.567" height="283.808" fill="white" transform="translate(0.591309 0.095993)"/>
</clipPath>
</defs>
</svg>
