<?xml version="1.0" encoding="UTF-8"?>
<svg id="Layer_1" data-name="Layer 1" xmlns="http://www.w3.org/2000/svg" viewBox="0 0 910 284">
  <defs>
    <style>
      .cls-1 {
        fill: #f0f2f5;
      }
    </style>
  </defs>
  <path class="cls-1" d="m840.97,252.87c-3.82,3.62-8.42,5.38-13.8,5.38-5.09,0-9.59-1.76-13.41-5.38-3.82-3.82-5.78-8.42-5.78-13.8s1.96-9.99,5.78-13.8c3.82-3.82,8.32-5.78,13.41-5.78,5.38,0,9.99,1.96,13.8,5.78,3.82,3.82,5.78,8.42,5.78,13.8s-1.96,9.99-5.78,13.8Zm-56.49.78c0,4.11,1.76,8.22,5.38,12.24,3.62,3.82,8.81,5.78,15.76,5.78h-93.3c6.95,0,12.14-1.96,15.76-5.78,3.82-4.11,5.78-8.22,5.78-12.24V110.13c0-4.31-1.96-8.42-5.78-12.24-3.62-4.11-8.81-6.17-15.76-6.17,9.2,0,19.29-1.37,30.35-4.21,10.97-3.03,20.76-7.44,29.17-13.02,8.42-5.87,12.63-12.14,12.63-18.8v197.96Zm-7.64-207.26c-4.9,4.9-10.87,7.24-18.01,7.24s-12.83-2.45-17.62-7.24c-4.9-5.09-7.24-11.16-7.24-18.01s2.45-12.83,7.24-17.62c4.9-5.09,10.77-7.64,17.62-7.64s13.22,2.55,18.01,7.64c5.09,4.9,7.64,10.77,7.64,17.62s-2.55,12.92-7.64,18.01Zm-368.99,63.73c0-4.31-1.76-8.42-5.38-12.24-3.62-4.11-8.81-6.17-15.76-6.17,9.2,0,19.29-1.37,30.35-4.21,10.97-3.03,20.56-7.44,28.78-13.02,8.42-5.87,12.63-12.14,12.63-18.8v65.59l-2.35,3.43c-13.31,18.21-29.47,37.5-48.36,57.96v-72.55h.1Zm50.71,143.52c0,4.11,1.76,8.22,5.38,12.24,3.82,3.82,9.2,5.78,16.15,5.78h-93.3c6.95,0,12.14-1.96,15.76-5.78,3.62-4.11,5.38-8.22,5.38-12.24v-44.55c6.36-8.22,15.86-20.95,28.39-38.38,9.5-13.02,16.84-23.2,22.22-30.35v113.27Zm190.32,0c0,4.11-1.76,8.22-5.38,12.24-3.62,3.82-8.91,5.78-16.15,5.78h93.59c-7.15,0-12.53-1.96-16.15-5.78-3.62-4.11-5.38-8.22-5.38-12.24V122.76c0-7.15-.88-14.29-2.64-21.54-1.76-7.15-4.5-13.61-8.03-19.19-3.62-5.58-7.93-10.38-13.02-14.2-4.9-3.82-10.77-5.78-17.62-5.78-6.66-.29-13.9,1.37-21.83,4.99-7.64,3.33-16.35,9.89-26.14,19.58-9.69,9.5-19.68,21.64-29.96,36.42v-.39c0-7.44-.88-14.59-2.64-21.54-1.76-7.15-4.6-13.61-8.42-19.19-3.62-5.87-7.93-10.77-13.02-14.59-4.9-3.82-10.87-5.58-18.01-5.38-6.95,0-14.29,1.96-22.22,5.78-7.93,3.62-16.84,10.38-26.83,20.36-9.69,9.99-19.87,22.62-30.35,37.99l-3.43,4.6c-2.06,2.84-5.29,6.76-9.59,11.94-4.11,5.09-8.91,10.97-14.59,17.62-5.38,6.66-11.36,13.71-18.01,21.15-6.66,7.44-13.71,14.88-21.15,22.22-7.15,7.15-14.69,14.1-22.62,20.76-7.64,6.66-15.37,12.53-23.01,17.62-7.44,5.09-14.98,9.2-22.62,12.24-7.44,2.84-14.2,4.21-20.36,4.21-15.08-1.27-27.51-9.99-37.2-26.14-9.99-15.96-14.78-36.62-14.78-61.97h118.17c0-30.74-8.42-56.78-25.36-78.32-16.84-21.54-37.2-32.21-60.99-32.21s-44.15,10.87-60.99,32.6c-16.64,21.54-24.97,47.48-24.97,77.93,0,19.97,3.82,38.48,11.55,55.61,7.64,16.84,18.01,30.35,31.13,40.34,13.31,9.69,27.8,14.59,43.37,14.59,10.28,0,19.97-1.27,29.17-3.82,9.5-2.35,17.92-5.09,25.36-8.42,7.64-3.62,15.37-8.42,23.01-14.59,7.93-6.36,14.69-12.53,20.36-18.41,5.87-5.87,12.53-13.31,19.97-22.22,7.44-9.2,13.61-17.23,18.41-24.18,5.09-6.95,11.55-15.76,19.19-26.43,7.93-10.97,14.59-19.97,19.97-26.83,6.66-9.5,12.92-17.92,18.8-25.36,34.76-43.96,52.18-47.19,52.18-9.59v152.73c0,4.11-1.96,8.22-5.78,12.24-3.62,3.82-8.81,5.78-15.76,5.78h93.3c-6.95,0-12.14-1.96-15.76-5.78-3.62-4.11-5.38-8.22-5.38-12.24v-121.01l16.15-21.83c35.05-44.55,52.57-47.87,52.57-9.99v152.73h-.1ZM261.68,95.55c6.17-17.92,13.31-26.83,21.54-26.83s15.57,8.91,21.54,26.83c6.17,17.92,9.59,39.75,10.38,65.59h-63.34c.39-25.85,3.72-47.68,9.89-65.59Zm-69.26,22.42c4.56-12.24,10.85-23.57,18.86-33.94,4.64-5.98,9.54-11.26,14.69-15.83-4.47-4.54-9.24-7.21-14.3-7.95-5.26-.77-11.55.71-18.87,4.43-7.32,3.72-15.73,10.97-25.22,21.75-9.5,10.78-20.15,25.16-31.96,43.12V55.63c0,6.68-4.24,12.9-12.71,18.67-8.47,5.78-18.23,10.14-29.26,13.09-11.04,2.95-21.18,4.43-30.42,4.43,6.93,0,12.25,1.99,15.98,5.97,3.72,3.98,5.58,8.15,5.58,12.51v144c0,4.11-1.86,8.15-5.58,12.13-3.72,3.98-9.05,5.97-15.98,5.97h93.56c-6.93,0-12.19-1.99-15.79-5.97-3.6-3.98-5.39-8.02-5.39-12.13v-115.12c23.64-27.57,42.56-34.64,56.79-21.22Z"/>
</svg>