<svg width="870" height="283" viewBox="0 0 870 283" fill="none" xmlns="http://www.w3.org/2000/svg">
<path d="M50.5533 138.408L3.12134 4.34424H48.5933L77.6013 92.9362H78.3853L108.177 4.34424H148.945L101.513 138.408L151.297 278.744H105.825L74.4653 183.096H73.6813L41.5373 278.744H0.769337L50.5533 138.408ZM171.779 4.34424H285.851V43.5443H214.899V119.984H270.563V159.184H214.899V278.744H171.779V4.34424ZM368.857 282.664C347.689 282.664 331.487 276.654 320.249 264.632C309.012 252.611 303.393 235.624 303.393 213.672V69.4162C303.393 47.4642 309.012 30.4776 320.249 18.4562C331.487 6.43491 347.689 0.424248 368.857 0.424248C390.025 0.424248 406.228 6.43491 417.465 18.4562C428.703 30.4776 434.321 47.4642 434.321 69.4162V213.672C434.321 235.624 428.703 252.611 417.465 264.632C406.228 276.654 390.025 282.664 368.857 282.664ZM368.857 243.464C383.753 243.464 391.201 234.448 391.201 216.416V66.6723C391.201 48.6403 383.753 39.6243 368.857 39.6243C353.961 39.6243 346.513 48.6403 346.513 66.6723V216.416C346.513 234.448 353.961 243.464 368.857 243.464ZM463.482 4.34424H506.602V239.544H577.554V278.744H463.482V4.34424ZM598.232 4.34424H641.352V278.744H598.232V4.34424ZM735.975 282.664C714.807 282.664 698.604 276.654 687.367 264.632C676.129 252.611 670.511 235.624 670.511 213.672V69.4162C670.511 47.4642 676.129 30.4776 687.367 18.4562C698.604 6.43491 714.807 0.424248 735.975 0.424248C757.143 0.424248 773.345 6.43491 784.583 18.4562C795.82 30.4776 801.439 47.4642 801.439 69.4162V213.672C801.439 235.624 795.82 252.611 784.583 264.632C773.345 276.654 757.143 282.664 735.975 282.664ZM735.975 243.464C750.871 243.464 758.319 234.448 758.319 216.416V66.6723C758.319 48.6403 750.871 39.6243 735.975 39.6243C721.079 39.6243 713.631 48.6403 713.631 66.6723V216.416C713.631 234.448 721.079 243.464 735.975 243.464ZM828.303 237.192H869.855V278.744H828.303V237.192Z" fill="white"/>
</svg>
