<svg width="910" height="284" viewBox="0 0 910 284" fill="none" xmlns="http://www.w3.org/2000/svg">
<g clip-path="url(#clip0_41_12)">
<path d="M903.391 255.288C899.471 258.947 894.767 260.776 889.279 260.776C884.053 260.776 879.479 258.947 875.559 255.288C871.639 251.368 869.679 246.664 869.679 241.176C869.679 235.688 871.639 230.984 875.559 227.064C879.479 223.144 884.053 221.184 889.279 221.184C894.767 221.184 899.471 223.144 903.391 227.064C907.311 230.984 909.271 235.688 909.271 241.176C909.271 246.664 907.311 251.368 903.391 255.288Z" fill="#F0F2F5"/>
<path d="M845.706 256.072C845.706 260.253 847.535 264.435 851.194 268.616C854.853 272.536 860.21 274.496 867.266 274.496H772.01C779.066 274.496 784.423 272.536 788.082 268.616C792.002 264.435 793.962 260.253 793.962 256.072V109.464C793.962 105.021 792.002 100.84 788.082 96.92C784.423 92.7387 779.066 90.648 772.01 90.648C781.418 90.648 791.741 89.2107 802.978 86.336C814.215 83.2 824.146 78.7573 832.77 73.008C841.394 66.9973 845.706 60.5947 845.706 53.8V256.072ZM837.866 44.392C832.901 49.3573 826.759 51.84 819.442 51.84C812.386 51.84 806.375 49.3573 801.41 44.392C796.445 39.1653 793.962 33.024 793.962 25.968C793.962 18.912 796.445 12.9013 801.41 7.93601C806.375 2.70933 812.386 0.095993 819.442 0.095993C826.759 0.095993 832.901 2.70933 837.866 7.93601C843.093 12.9013 845.706 18.912 845.706 25.968C845.706 33.024 843.093 39.1653 837.866 44.392Z" fill="#F0F2F5"/>
<path d="M461.019 109.464C461.019 105.021 459.19 100.84 455.531 96.92C451.873 92.7387 446.515 90.648 439.459 90.648C448.867 90.648 459.19 89.2107 470.427 86.336C481.665 83.2 491.465 78.7573 499.827 73.008C508.451 66.9973 512.763 60.5947 512.763 53.8V120.832L510.411 124.36C496.822 142.915 480.358 162.645 461.019 183.552V109.464ZM512.763 256.072C512.763 260.253 514.593 264.435 518.251 268.616C522.171 272.536 527.659 274.496 534.715 274.496H439.459C446.515 274.496 451.873 272.536 455.531 268.616C459.19 264.435 461.019 260.253 461.019 256.072V210.6C467.553 202.237 477.222 189.171 490.027 171.4C499.697 158.072 507.275 147.749 512.763 140.432V256.072ZM758.939 256.072C758.939 260.253 760.769 264.435 764.427 268.616C768.086 272.536 773.574 274.496 780.891 274.496H685.243C692.561 274.496 698.049 272.536 701.707 268.616C705.366 264.435 707.195 260.253 707.195 256.072V154.544V100.056C707.195 61.3787 689.294 64.776 653.491 110.248L637.027 132.592V256.072C637.027 260.253 638.857 264.435 642.515 268.616C646.174 272.536 651.531 274.496 658.587 274.496H563.331C570.387 274.496 575.745 272.536 579.403 268.616C583.323 264.435 585.283 260.253 585.283 256.072V154.544V100.056C585.283 61.64 567.513 64.9067 531.971 109.856C525.961 117.435 519.558 126.059 512.763 135.728C507.275 142.784 500.481 151.931 492.379 163.168C484.539 174.144 478.006 183.16 472.779 190.216C467.814 197.272 461.542 205.504 453.963 214.912C446.385 224.059 439.59 231.637 433.579 237.648C427.83 243.659 420.905 249.931 412.803 256.464C404.963 262.736 397.123 267.701 389.283 271.36C381.705 274.757 373.081 277.632 363.411 279.984C354.003 282.597 344.073 283.904 333.619 283.904C317.678 283.904 302.913 278.939 289.323 269.008C275.995 258.816 265.411 245.096 257.571 227.848C249.731 210.339 245.811 191.392 245.811 171.008C245.811 139.909 254.305 113.384 271.291 91.432C288.539 69.2187 309.315 58.112 333.619 58.112C357.923 58.112 378.699 69.088 395.947 91.04C413.195 112.992 421.819 139.648 421.819 171.008H301.083C301.083 196.88 306.049 218.048 315.979 234.512C325.91 250.976 338.585 259.861 354.003 261.168C360.275 261.168 367.201 259.731 374.779 256.856C382.619 253.72 390.329 249.539 397.907 244.312C405.747 239.085 413.587 233.075 421.427 226.28C429.529 219.485 437.238 212.429 444.555 205.112C452.134 197.533 459.321 189.955 466.115 182.376C472.91 174.797 479.051 167.611 484.539 160.816C490.289 154.021 495.254 148.011 499.435 142.784C503.878 137.557 507.145 133.507 509.235 130.632L512.763 125.928C523.478 110.248 533.801 97.312 543.731 87.12C553.923 76.928 563.07 70.0027 571.171 66.344C579.273 62.424 586.851 60.464 593.907 60.464C601.225 60.2027 607.366 62.032 612.331 65.952C617.558 69.872 622.001 74.8373 625.659 80.848C629.579 86.5973 632.454 93.1307 634.283 100.448C636.113 107.504 637.027 114.821 637.027 122.4V122.792C647.481 107.635 657.673 95.2213 667.603 85.552C677.534 75.6213 686.419 68.9573 694.259 65.56C702.361 61.9013 709.809 60.2027 716.603 60.464C723.659 60.464 729.67 62.424 734.635 66.344C739.862 70.264 744.305 75.0987 747.963 80.848C751.622 86.5973 754.366 93.1307 756.195 100.448C758.025 107.765 758.939 115.083 758.939 122.4V256.072ZM355.571 94.568C349.561 76.2747 342.243 67.128 333.619 67.128C325.257 67.128 317.939 76.2747 311.667 94.568C305.395 112.861 301.998 135.205 301.475 161.6H366.155C365.371 135.205 361.843 112.861 355.571 94.568Z" fill="#F0F2F5"/>
<path d="M173.968 170.616C175.797 174.275 179.195 181.2 184.16 191.392C189.387 201.584 194.221 210.861 198.664 219.224C203.107 227.587 208.203 236.341 213.952 245.488C219.963 254.373 226.104 261.429 232.376 266.656C238.909 271.883 245.312 274.496 251.584 274.496C249.755 274.496 245.835 274.496 239.824 274.496C234.075 274.757 229.632 274.888 226.496 274.888C223.36 274.888 218.917 274.627 213.168 274.104C207.419 273.32 202.453 272.275 198.272 270.968C194.352 269.661 189.779 267.832 184.552 265.48C179.587 262.867 174.883 259.731 170.44 256.072C167.827 253.72 165.083 250.976 162.208 247.84C159.595 244.443 156.589 240.131 153.192 234.904C149.795 229.416 147.181 225.104 145.352 221.968C143.523 218.832 140.387 213.475 135.944 205.896C131.501 198.056 128.496 192.96 126.928 190.608C115.691 174.667 105.629 162.384 96.7441 153.76C92.8241 149.84 85.3761 147.357 74.4001 146.312V256.072C74.4001 260.253 76.2294 264.435 79.8881 268.616C83.5468 272.536 88.9041 274.496 95.9601 274.496H0.704102C7.7601 274.496 13.1174 272.536 16.7761 268.616C20.6961 264.435 22.6561 260.253 22.6561 256.072V18.52C22.6561 14.3387 20.6961 10.288 16.7761 6.36801C13.1174 2.18666 7.7601 0.095993 0.704102 0.095993H182.984C201.8 0.095993 217.872 6.89067 231.2 20.48C244.789 33.808 251.584 50.0107 251.584 69.088C251.584 87.904 244.789 103.976 231.2 117.304C217.872 130.632 201.8 137.296 182.984 137.296H146.528C154.891 142 161.947 149.579 167.696 160.032L173.968 170.616ZM74.4001 128.28H141.04C152.016 126.973 161.685 123.445 170.048 117.696C178.411 111.685 184.813 104.499 189.256 96.136C193.96 87.512 196.312 78.3653 196.312 68.696C196.312 54.3227 191.216 41.5173 181.024 30.28C171.093 18.7813 158.419 11.856 143 9.50399H77.1441C75.3148 12.3787 74.4001 15.384 74.4001 18.52V128.28Z" fill="#F0F2F5"/>
</g>
<defs>
<clipPath id="clip0_41_12">
<rect width="908.567" height="283.808" fill="white" transform="translate(0.704102 0.095993)"/>
</clipPath>
</defs>
</svg>
