<?xml version="1.0" encoding="utf-8"?>
<!-- Generator: Adobe Illustrator 27.3.1, SVG Export Plug-In . SVG Version: 6.00 Build 0)  -->
<svg version="1.1" id="Layer_1" xmlns="http://www.w3.org/2000/svg" xmlns:xlink="http://www.w3.org/1999/xlink" x="0px" y="0px"
	 viewBox="0 0 910 284" style="enable-background:new 0 0 910 284;" xml:space="preserve">
<style type="text/css">
	.st0{fill:#373843;}
</style>
<path class="st0" d="M903.3,255.3c-3.9,3.7-8.6,5.5-14.1,5.5c-5.2,0-9.8-1.8-13.7-5.5c-3.9-3.9-5.9-8.6-5.9-14.1
	c0-5.5,2-10.2,5.9-14.1c3.9-3.9,8.5-5.9,13.7-5.9c5.5,0,10.2,2,14.1,5.9c3.9,3.9,5.9,8.6,5.9,14.1
	C909.2,246.7,907.2,251.4,903.3,255.3z"/>
<path class="st0" d="M845.6,256.1c0,4.2,1.8,8.4,5.5,12.5c3.7,3.9,9,5.9,16.1,5.9h-95.3c7.1,0,12.4-2,16.1-5.9
	c3.9-4.2,5.9-8.4,5.9-12.5V109.5c0-4.4-2-8.6-5.9-12.5c-3.7-4.2-9-6.3-16.1-6.3c9.4,0,19.7-1.4,31-4.3c11.2-3.1,21.2-7.6,29.8-13.3
	c8.6-6,12.9-12.4,12.9-19.2V256.1z M837.8,44.4c-5,5-11.1,7.4-18.4,7.4c-7.1,0-13.1-2.5-18-7.4c-5-5.2-7.4-11.4-7.4-18.4
	s2.5-13.1,7.4-18c5-5.2,11-7.8,18-7.8c7.3,0,13.5,2.6,18.4,7.8c5.2,5,7.8,11,7.8,18S843,39.2,837.8,44.4z"/>
<path class="st0" d="M460.9,109.5c0-4.4-1.8-8.6-5.5-12.5c-3.7-4.2-9-6.3-16.1-6.3c9.4,0,19.7-1.4,31-4.3c11.2-3.1,21-7.6,29.4-13.3
	c8.6-6,12.9-12.4,12.9-19.2v67l-2.4,3.5c-13.6,18.6-30.1,38.3-49.4,59.2V109.5z"/>
<path class="st0" d="M512.7,256.1c0,4.2,1.8,8.4,5.5,12.5c3.9,3.9,9.4,5.9,16.5,5.9h-95.3c7.1,0,12.4-2,16.1-5.9
	c3.7-4.2,5.5-8.4,5.5-12.5v-45.5c6.5-8.4,16.2-21.4,29-39.2c9.7-13.3,17.2-23.7,22.7-31V256.1z"/>
<path class="st0" d="M707.1,256.1c0,4.2-1.8,8.4-5.5,12.5c-3.7,3.9-9.1,5.9-16.5,5.9h95.6c-7.3,0-12.8-2-16.5-5.9
	c-3.7-4.2-5.5-8.4-5.5-12.5V122.4c0-7.3-0.9-14.6-2.7-22c-1.8-7.3-4.6-13.9-8.2-19.6c-3.7-5.7-8.1-10.6-13.3-14.5
	c-5-3.9-11-5.9-18-5.9c-6.8-0.3-14.2,1.4-22.3,5.1c-7.8,3.4-16.7,10.1-26.7,20c-9.9,9.7-20.1,22.1-30.6,37.2v-0.4
	c0-7.6-0.9-14.9-2.7-22c-1.8-7.3-4.7-13.9-8.6-19.6c-3.7-6-8.1-11-13.3-14.9c-5-3.9-11.1-5.7-18.4-5.5c-7.1,0-14.6,2-22.7,5.9
	c-8.1,3.7-17.2,10.6-27.4,20.8c-9.9,10.2-20.3,23.1-31,38.8l-3.5,4.7c-2.1,2.9-5.4,6.9-9.8,12.2c-4.2,5.2-9.1,11.2-14.9,18
	c-5.5,6.8-11.6,14-18.4,21.6c-6.8,7.6-14,15.2-21.6,22.7c-7.3,7.3-15,14.4-23.1,21.2c-7.8,6.8-15.7,12.8-23.5,18
	c-7.6,5.2-15.3,9.4-23.1,12.5c-7.6,2.9-14.5,4.3-20.8,4.3c-15.4-1.3-28.1-10.2-38-26.7C305.9,218,301,196.9,301,171h120.7
	c0-31.4-8.6-58-25.9-80c-17.2-22-38-32.9-62.3-32.9c-24.3,0-45.1,11.1-62.3,33.3c-17,22-25.5,48.5-25.5,79.6
	c0,20.4,3.9,39.3,11.8,56.8c7.8,17.2,18.4,31,31.8,41.2c13.6,9.9,28.4,14.9,44.3,14.9c10.5,0,20.4-1.3,29.8-3.9
	c9.7-2.4,18.3-5.2,25.9-8.6c7.8-3.7,15.7-8.6,23.5-14.9c8.1-6.5,15-12.8,20.8-18.8c6-6,12.8-13.6,20.4-22.7
	c7.6-9.4,13.9-17.6,18.8-24.7c5.2-7.1,11.8-16.1,19.6-27c8.1-11.2,14.9-20.4,20.4-27.4c6.8-9.7,13.2-18.3,19.2-25.9
	c35.5-44.9,53.3-48.2,53.3-9.8v54.5v101.5c0,4.2-2,8.4-5.9,12.5c-3.7,3.9-9,5.9-16.1,5.9h95.3c-7.1,0-12.4-2-16.1-5.9
	c-3.7-4.2-5.5-8.4-5.5-12.5V132.6l16.5-22.3c35.8-45.5,53.7-48.9,53.7-10.2v54.5V256.1z M311.6,94.6c6.3-18.3,13.6-27.4,22-27.4
	c8.6,0,15.9,9.1,22,27.4c6.3,18.3,9.8,40.6,10.6,67h-64.7C301.9,135.2,305.3,112.9,311.6,94.6z"/>
<path class="st0" d="M173.9,170.6c1.8,3.7,5.2,10.6,10.2,20.8c5.2,10.2,10.1,19.5,14.5,27.8c4.4,8.4,9.5,17.1,15.3,26.3
	c6,8.9,7.9,10.6,15.7,15.6c17.2,9.6,47.1,2.6,53.4,2.6c-1.8,0-20.1,9.1-43.1,10.8c-5.7,0.3-10.2,0.4-13.3,0.4s-7.6-0.3-13.3-0.8
	c-5.7-0.8-10.7-1.8-14.9-3.1c-3.9-1.3-8.5-3.1-13.7-5.5c-5-2.6-9.7-5.7-14.1-9.4c-2.6-2.4-5.4-5.1-8.2-8.2c-2.6-3.4-5.6-7.7-9-12.9
	c-3.4-5.5-6-9.8-7.8-12.9c-1.8-3.1-5-8.5-9.4-16.1c-4.4-7.8-7.4-12.9-9-15.3c-11.2-15.9-21.3-28.2-30.2-36.8
	c-3.9-3.9-11.4-6.4-22.3-7.4v109.8c0,4.2,1.8,8.4,5.5,12.5c3.7,3.9,9,5.9,16.1,5.9H0.6c7.1,0,12.4-2,16.1-5.9
	c3.9-4.2,5.9-8.4,5.9-12.5V18.5c0-4.2-2-8.2-5.9-12.2C13,2.2,7.6,0.1,0.6,0.1h182.3c18.8,0,34.9,6.8,48.2,20.4
	c13.6,13.3,20.4,29.5,20.4,48.6c0,18.8-6.8,34.9-20.4,48.2c-13.3,13.3-29.4,20-48.2,20h-36.5c8.4,4.7,15.4,12.3,21.2,22.7
	L173.9,170.6z M74.3,128.3h66.6c11-1.3,20.6-4.8,29-10.6c8.4-6,14.8-13.2,19.2-21.6c4.7-8.6,7.1-17.8,7.1-27.4
	c0-14.4-5.1-27.2-15.3-38.4c-9.9-11.5-22.6-18.4-38-20.8H77c-1.8,2.9-2.7,5.9-2.7,9V128.3z"/>
</svg>
