<?xml version="1.0" encoding="utf-8"?>
<!-- Generator: Adobe Illustrator 27.3.1, SVG Export Plug-In . SVG Version: 6.00 Build 0)  -->
<svg version="1.1" id="Layer_1" xmlns="http://www.w3.org/2000/svg" xmlns:xlink="http://www.w3.org/1999/xlink" x="0px" y="0px"
	 viewBox="0 0 910 284" style="enable-background:new 0 0 910 284;" xml:space="preserve">
<style type="text/css">
	.st0{fill:none;stroke:#F0F2F5;stroke-miterlimit:10;}
</style>
<path class="st0" d="M841,252.9c-3.8,3.6-8.4,5.4-13.8,5.4c-5.1,0-9.6-1.8-13.4-5.4c-3.8-3.8-5.8-8.4-5.8-13.8s2-10,5.8-13.8
	c3.8-3.8,8.3-5.8,13.4-5.8c5.4,0,10,2,13.8,5.8c3.8,3.8,5.8,8.4,5.8,13.8S844.8,249.1,841,252.9z M784.5,253.6
	c0,4.1,1.8,8.2,5.4,12.2c3.6,3.8,8.8,5.8,15.8,5.8h-93.3c7,0,12.1-2,15.8-5.8c3.8-4.1,5.8-8.2,5.8-12.2V110.1c0-4.3-2-8.4-5.8-12.2
	c-3.6-4.1-8.8-6.2-15.8-6.2c9.2,0,19.3-1.4,30.3-4.2c11-3,20.8-7.4,29.2-13c8.4-5.9,12.6-12.1,12.6-18.8L784.5,253.6L784.5,253.6z
	 M776.8,46.4c-4.9,4.9-10.9,7.2-18,7.2s-12.8-2.5-17.6-7.2c-4.9-5.1-7.2-11.2-7.2-18s2.5-12.8,7.2-17.6c4.9-5.1,10.8-7.6,17.6-7.6
	s13.2,2.5,18,7.6c5.1,4.9,7.6,10.8,7.6,17.6S781.9,41.3,776.8,46.4z M407.8,110.1c0-4.3-1.8-8.4-5.4-12.2c-3.6-4.1-8.8-6.2-15.8-6.2
	c9.2,0,19.3-1.4,30.4-4.2c11-3,20.6-7.4,28.8-13c8.4-5.9,12.6-12.1,12.6-18.8v65.6l-2.4,3.4c-13.3,18.2-29.5,37.5-48.4,58
	L407.8,110.1L407.8,110.1L407.8,110.1z M458.6,253.6c0,4.1,1.8,8.2,5.4,12.2c3.8,3.8,9.2,5.8,16.1,5.8h-93.3c7,0,12.1-2,15.8-5.8
	c3.6-4.1,5.4-8.2,5.4-12.2v-44.6c6.4-8.2,15.9-20.9,28.4-38.4c9.5-13,16.8-23.2,22.2-30.4L458.6,253.6L458.6,253.6z M648.9,253.6
	c0,4.1-1.8,8.2-5.4,12.2c-3.6,3.8-8.9,5.8-16.2,5.8h93.6c-7.2,0-12.5-2-16.2-5.8c-3.6-4.1-5.4-8.2-5.4-12.2V122.8
	c0-7.2-0.9-14.3-2.6-21.5c-1.8-7.2-4.5-13.6-8-19.2c-3.6-5.6-7.9-10.4-13-14.2c-4.9-3.8-10.8-5.8-17.6-5.8c-6.7-0.3-13.9,1.4-21.8,5
	c-7.6,3.3-16.3,9.9-26.1,19.6c-9.7,9.5-19.7,21.6-30,36.4v-0.4c0-7.4-0.9-14.6-2.6-21.5c-1.8-7.2-4.6-13.6-8.4-19.2
	c-3.6-5.9-7.9-10.8-13-14.6c-4.9-3.8-10.9-5.6-18-5.4c-7,0-14.3,2-22.2,5.8c-7.9,3.6-16.8,10.4-26.8,20.4c-9.7,10-19.9,22.6-30.4,38
	l-3.4,4.6c-2.1,2.8-5.3,6.8-9.6,11.9c-4.1,5.1-8.9,11-14.6,17.6c-5.4,6.7-11.4,13.7-18,21.1c-6.7,7.4-13.7,14.9-21.1,22.2
	c-7.1,7.1-14.7,14.1-22.6,20.8c-7.6,6.7-15.4,12.5-23,17.6c-7.4,5.1-15,9.2-22.6,12.2c-7.4,2.8-14.2,4.2-20.4,4.2
	c-15.1-1.3-27.5-10-37.2-26.1c-10-16-14.8-36.6-14.8-62h118.2c0-30.7-8.4-56.8-25.4-78.3c-16.8-21.5-37.2-32.2-61-32.2
	s-44.1,10.9-61,32.6c-16.6,21.5-25,47.5-25,77.9c0,20,3.8,38.5,11.6,55.6c7.6,16.8,18,30.4,31.1,40.3c13.3,9.7,27.8,14.6,43.4,14.6
	c10.3,0,20-1.3,29.2-3.8c9.5-2.4,17.9-5.1,25.4-8.4c7.6-3.6,15.4-8.4,23-14.6c7.9-6.4,14.7-12.5,20.4-18.4
	c5.9-5.9,12.5-13.3,20-22.2c7.4-9.2,13.6-17.2,18.4-24.2c5.1-6.9,11.5-15.8,19.2-26.4c7.9-11,14.6-20,20-26.8
	c6.7-9.5,12.9-17.9,18.8-25.4c34.8-44,52.2-47.2,52.2-9.6v152.7c0,4.1-2,8.2-5.8,12.2c-3.6,3.8-8.8,5.8-15.8,5.8h93.3
	c-7,0-12.1-2-15.8-5.8c-3.6-4.1-5.4-8.2-5.4-12.2v-121l16.2-21.8c35-44.6,52.6-47.9,52.6-10v152.7L648.9,253.6L648.9,253.6z
	 M261.7,95.6c6.2-17.9,13.3-26.8,21.5-26.8s15.6,8.9,21.5,26.8c6.2,17.9,9.6,39.8,10.4,65.6h-63.3
	C252.2,135.3,255.5,113.5,261.7,95.6L261.7,95.6z M192.4,118c4.6-12.2,10.9-23.6,18.9-33.9c4.6-6,9.5-11.3,14.7-15.8
	c-4.5-4.5-9.2-7.2-14.3-8c-5.3-0.8-11.6,0.7-18.9,4.4c-7.3,3.7-15.7,11-25.2,21.8c-9.5,10.8-20.1,25.2-32,43.1V55.6
	c0,6.7-4.2,12.9-12.7,18.7c-8.5,5.8-18.2,10.1-29.3,13.1c-11,2.9-21.2,4.4-30.4,4.4c6.9,0,12.2,2,16,6c3.7,4,5.6,8.2,5.6,12.5v144
	c0,4.1-1.9,8.2-5.6,12.1c-3.7,4-9.1,6-16,6h93.6c-6.9,0-12.2-2-15.8-6c-3.6-4-5.4-8-5.4-12.1V139.2
	C159.2,111.6,178.2,104.5,192.4,118L192.4,118z"/>
</svg>
